<?xml version="1.0" encoding="utf-8"?>
<!-- Generator: Adobe Illustrator 16.0.0, SVG Export Plug-In . SVG Version: 6.00 Build 0)  -->
<!DOCTYPE svg PUBLIC "-//W3C//DTD SVG 1.1//EN" "http://www.w3.org/Graphics/SVG/1.1/DTD/svg11.dtd">
<svg version="1.1" id="Layer_1" xmlns="http://www.w3.org/2000/svg" xmlns:xlink="http://www.w3.org/1999/xlink" x="0px" y="0px"
	 width="166.667px" height="268.627px" viewBox="20.402 40.931 166.667 268.627"
	 enable-background="new 20.402 40.931 166.667 268.627" xml:space="preserve">
<g>
	<path fill="#FFFFFF" stroke="#000000" stroke-miterlimit="10" d="M50.5,226.112c-12.078-13.091-18.761-29.965-18.761-49.374
		c0-19.385,6.71-37.065,18.761-50.151l27.672,29.354c-4.186,5.44-6.683,12.3-6.683,19.756c0,7.402,2.461,14.216,6.593,19.637
		L50.5,226.112z"/>
</g>
<g>
	<path fill="#FFFFFF" stroke="#000000" stroke-miterlimit="10" d="M155.498,127.249c12.078,13.091,18.915,28.342,18.915,47.752
		c0,19.385-6.95,38.329-19.001,51.416l-27.166-30c4.186-5.44,5.688-12.895,5.688-20.35c0-7.402-2.221-12.981-6.353-18.402
		L155.498,127.249z"/>
</g>
<g>
	<path fill="#FFFFFF" stroke="#000000" stroke-miterlimit="10" d="M127.333,157.251c-0.542-0.818-1.366-1.608-1.973-2.369
		c-5.609-7.027-13.904-11.473-23.158-11.473c-10.133,0-17.974,4.259-23.869,12.175L50.75,126.086
		c13.093-14.116,31.076-22.678,51.62-22.678c20.776,0,39.492,9.004,52.607,23.398L127.333,157.251z"/>
</g>
<g>
	<path fill="#FFFFFF" stroke="#000000" stroke-miterlimit="10" d="M78.394,195.666c0.542,0.818,1.116,1.608,1.723,2.369
		c5.609,7.027,13.904,11.473,23.158,11.473c10.133,0,18.911-4.8,24.806-12.716l27.193,29.797
		c-13.093,14.116-31.623,22.921-52.167,22.921c-20.776,0-39.492-9.004-52.607-23.398L78.394,195.666z"/>
</g>
<g>
	<ellipse fill="#FFFFFF" stroke="#000000" stroke-miterlimit="10" cx="103.5" cy="176.625" rx="32.75" ry="33.375"/>
</g>
<g>
	<path fill="#FFFFFF" stroke="#000000" stroke-miterlimit="10" d="M154.852,126.557c-13.115-14.394-31.831-23.398-52.607-23.398
		c-20.544,0-38.527,8.562-51.62,22.678c0,0-7.673-17.203-8.791-23.337c-6.333-34.774,27.529-48,60.666-48s64.31,13.005,59.334,48
		C160.953,108.7,154.852,126.557,154.852,126.557z"/>
</g>
<g>
	<path fill="#FFFFFF" stroke="#000000" stroke-miterlimit="10" d="M50.905,225.833c13.115,14.394,31.831,23.398,52.607,23.398
		c20.544,0,38.527-8.562,51.62-22.678c0,0,7.673,17.203,8.791,23.337c6.333,34.774-27.529,48-60.666,48
		c-33.137,0-64.31-13.005-59.334-48C44.804,243.69,50.905,225.833,50.905,225.833z"/>
</g>
</svg>
